<svg xmlns="http://www.w3.org/2000/svg" width="119.916" height="32" viewBox="0 0 119.916 32"><defs><style>      .cls-1 {        fill: #02aded;      }    </style></defs><g id="Group_173" data-name="Group 173" transform="translate(-276.679 -289.48)"><g id="Group_173-2" data-name="Group 173" transform="translate(298.862 289.48)"><path id="Path_210" data-name="Path 210" class="cls-1" d="M320.113,313.295a12.518,12.518,0,0,1,4.467-2.745,15.306,15.306,0,0,1,5.208-.915,13.92,13.92,0,0,1,4.642.676A6.919,6.919,0,0,1,337.5,312.4a8.932,8.932,0,0,1,1.721,3.574,21.121,21.121,0,0,1,.545,5.121v10.939h-6.538v-2.31H333.1a5.374,5.374,0,0,1-2.506,2.092,8.909,8.909,0,0,1-3.639.741,11.1,11.1,0,0,1-2.7-.349,7.892,7.892,0,0,1-2.55-1.133,6.129,6.129,0,0,1-1.9-2.092,6.45,6.45,0,0,1-.741-3.225,5.475,5.475,0,0,1,1.286-3.792,8.435,8.435,0,0,1,3.312-2.223,17.535,17.535,0,0,1,4.511-1.046,46.226,46.226,0,0,1,4.838-.262v-.349a2.662,2.662,0,0,0-1.134-2.375,4.885,4.885,0,0,0-2.789-.763,6.942,6.942,0,0,0-2.942.654,9.4,9.4,0,0,0-2.419,1.569Zm13.119,9.284h-.915q-1.177,0-2.375.109a9.819,9.819,0,0,0-2.135.414,3.96,3.96,0,0,0-1.547.893,2.051,2.051,0,0,0-.61,1.548,1.866,1.866,0,0,0,.283,1.046,2.185,2.185,0,0,0,.719.7,3.035,3.035,0,0,0,1,.371,5.761,5.761,0,0,0,1.09.109,4.415,4.415,0,0,0,3.334-1.2,4.483,4.483,0,0,0,1.155-3.247Z" transform="translate(-319.067 -300.733)"></path><path id="Path_211" data-name="Path 211" class="cls-1" d="M392.8,310.41a12.441,12.441,0,0,1-.7,4.145,10.518,10.518,0,0,1-2.027,3.5,9.849,9.849,0,0,1-7.605,3.336,10.15,10.15,0,0,1-4.119-.85,6.691,6.691,0,0,1-2.985-2.425h-.087v2.694H368.7V289.48h7.148v12.889h.087a8.941,8.941,0,0,1,2.572-1.907,8.626,8.626,0,0,1,4.053-.87,10.066,10.066,0,0,1,4.249.87,9.663,9.663,0,0,1,3.225,2.362,10.63,10.63,0,0,1,2.049,3.461A11.927,11.927,0,0,1,392.8,310.41Zm-6.887,0a5.973,5.973,0,0,0-.327-1.948,4.821,4.821,0,0,0-.981-1.679,5,5,0,0,0-3.836-1.637,5.02,5.02,0,0,0-2.179.456,5.172,5.172,0,0,0-1.634,1.2,5.438,5.438,0,0,0-1.046,1.7,5.307,5.307,0,0,0,0,3.9,5.432,5.432,0,0,0,1.046,1.7,5.165,5.165,0,0,0,1.634,1.2,5.006,5.006,0,0,0,2.179.456A5.115,5.115,0,0,0,383,315.3a4.93,4.93,0,0,0,1.612-1.2,4.983,4.983,0,0,0,.981-1.72A6.153,6.153,0,0,0,385.917,310.41Z" transform="translate(-344.735 -289.48)"></path><path id="Path_212" data-name="Path 212" class="cls-1" d="M435.994,316.295a5.626,5.626,0,0,0-.937-.174q-.458-.043-.894-.043a5.113,5.113,0,0,0-2.419.521,4.927,4.927,0,0,0-1.569,1.261,4.771,4.771,0,0,0-.85,1.608,5.388,5.388,0,0,0-.262,1.521v11.127h-7.147V310.437H428.8v3.138h.087a7.083,7.083,0,0,1,2.353-2.721,6.063,6.063,0,0,1,3.53-1.053,8.2,8.2,0,0,1,.85.043,3.219,3.219,0,0,1,.676.131Z" transform="translate(-371.801 -300.813)"></path><path id="Path_213" data-name="Path 213" class="cls-1" d="M465.256,293.954a3.356,3.356,0,0,1-.327,1.469,3.8,3.8,0,0,1-.871,1.179,4.059,4.059,0,0,1-1.308.786,4.44,4.44,0,0,1-1.59.29,4.12,4.12,0,0,1-2.92-1.1,3.512,3.512,0,0,1-.872-4.055,3.38,3.38,0,0,1,.872-1.18,4.721,4.721,0,0,1,1.307-.807,4.125,4.125,0,0,1,1.613-.311,4.462,4.462,0,0,1,1.59.29,4.067,4.067,0,0,1,1.308.786,3.807,3.807,0,0,1,.871,1.18A3.358,3.358,0,0,1,465.256,293.954Zm-7.671,27.186V300.533h7.147v20.607Z" transform="translate(-389.5 -289.837)"></path><path id="Path_214" data-name="Path 214" class="cls-1" d="M495.045,317.348a4.344,4.344,0,0,0-1.656-1.264,5.086,5.086,0,0,0-2.136-.479,4.516,4.516,0,0,0-2.048.458,4.971,4.971,0,0,0-1.569,1.22,5.747,5.747,0,0,0-1.024,1.765,6.1,6.1,0,0,0-.371,2.136,6.437,6.437,0,0,0,.349,2.135,5.2,5.2,0,0,0,1.024,1.765,4.845,4.845,0,0,0,1.612,1.2,4.949,4.949,0,0,0,2.114.436,5.91,5.91,0,0,0,2.158-.414,4.136,4.136,0,0,0,1.722-1.2l3.966,4.838a9.326,9.326,0,0,1-3.486,2.048,13.736,13.736,0,0,1-4.533.741,14.363,14.363,0,0,1-4.8-.784,11.155,11.155,0,0,1-3.873-2.288,10.742,10.742,0,0,1-2.587-3.639,12.775,12.775,0,0,1,0-9.632,10.747,10.747,0,0,1,2.587-3.639,11.424,11.424,0,0,1,3.873-2.31,13.867,13.867,0,0,1,4.757-.806,12.584,12.584,0,0,1,2.332.218,15.725,15.725,0,0,1,2.223.589,10.136,10.136,0,0,1,1.962.915,8.285,8.285,0,0,1,1.547,1.2Z" transform="translate(-401.453 -300.733)"></path></g><g id="Group_174" data-name="Group 174" transform="translate(276.679 291.55)"><rect id="Rectangle_92" data-name="Rectangle 92" class="cls-1" width="20.308" height="6.407" transform="translate(0 0)"></rect><rect id="Rectangle_93" data-name="Rectangle 93" class="cls-1" width="7.413" height="29.255" transform="translate(0 0)"></rect><rect id="Rectangle_94" data-name="Rectangle 94" class="cls-1" width="19.261" height="6.145" transform="translate(0.006 11.876)"></rect><rect id="Rectangle_95" data-name="Rectangle 95" class="cls-1" width="19.261" height="6.407" transform="translate(0.006 11.868)"></rect></g></g></svg>