<?xml version="1.0" encoding="utf-8"?>
<!-- Generator: Adobe Illustrator 23.0.1, SVG Export Plug-In . SVG Version: 6.00 Build 0)  -->
<svg version="1.1" id="Layer_1" xmlns="http://www.w3.org/2000/svg" xmlns:xlink="http://www.w3.org/1999/xlink" x="0px" y="0px"
	 viewBox="0 0 812.88 108.41" style="enable-background:new 0 0 812.88 108.41;" xml:space="preserve">
<style type="text/css">
	.st0{fill:#3d5aff;}
</style>
<g>
	<path class="st0" d="M553.87,92.85V57.78c0-8.7-2.85-15.5-8.84-19.85c-5.03-3.81-12.1-5.71-22.57-5.71
		c-21.07,0-30.99,11.01-31.54,23.92h20.39c0.68-5.84,4.21-8.97,11.28-8.97c6.66,0,9.52,2.99,9.52,7.48c0,4.76-4.62,6.12-17.67,7.75
		c-14.41,1.9-26.64,6.52-26.64,21.89c0,13.73,9.92,21.21,23.79,21.21c10.47,0,16.58-3.67,20.66-9.52h0.27
		c0.54,3.54,1.22,5.49,2.31,6.99h21.48v-0.19C554.42,101.55,553.87,98.42,553.87,92.85z M532.67,78.85c0,7.48-5.71,12.51-14,12.51
		c-5.44,0-9.52-2.17-9.52-7.75c0-5.3,3.53-7.48,12.1-9.38c4.49-1.09,8.56-2.18,11.42-3.67V78.85z"/>
	<path class="st0" d="M768.8,59.96c-8.84-1.63-16.72-2.31-16.72-7.2c0-4.35,4.21-6.39,9.65-6.39c6.12,0,10.33,1.9,11.15,8.16
		l20.39,0c-1.09-13.73-11.69-22.29-31.4-22.29c-16.45,0-30.04,7.61-30.04,22.29c0,16.31,12.91,19.57,25.01,21.61
		c9.24,1.63,17.67,2.31,17.67,8.56c0,4.49-4.21,6.93-10.88,6.93c-7.34,0-11.96-3.4-12.78-10.33l-20.94,0
		c0.68,15.36,13.46,24.74,33.85,24.74c18.21,0,31.67-7.88,31.67-23.11C795.44,65.12,781.03,61.99,768.8,59.96z"/>
	<path class="st0" d="M465.82,33.5l-7.75,28.82c-1.5,5.57-3.26,13.59-3.26,13.59h-0.27c0,0-1.77-8.02-3.26-14l-7.61-28.41H424.9
		l-7.34,28.41c-1.5,5.84-3.13,13.87-3.13,13.87h-0.27c0,0-1.63-7.88-3.13-13.46l-7.61-28.82h-22.56l21.34,69.6h20.53l8.29-31.54
		c1.5-5.44,3.13-12.51,3.13-12.51h0.27c0,0,1.5,7.07,2.99,12.51l8.16,31.54h20.8l21.34-69.6H465.82z"/>
	<path class="st0" d="M283.87,44.43h-0.39c-3.93-5.64-9.31-9.58-18.76-9.58c-17.32,0-29.39,14.56-29.39,35.55
		c0,22.43,12.2,35.68,29.39,35.68c8.79,0,15.74-4.2,19.81-11.15h0.26v9.05h20.47V2.33h-21.38V44.43z M270.22,89.17
		c-8.26,0-13.25-7.35-13.25-19.02c0-11.28,4.99-19.15,13.51-19.15c9.32,0,13.91,8.13,13.91,19.41
		C284.39,81.42,279.14,89.17,270.22,89.17z"/>
	<path class="st0" d="M698.57,33.73c-8.66,0-15.87,3.67-21.12,11.81h-0.26c-3.41-7.22-10.1-11.81-18.89-11.81
		c-9.71,0-16.14,4.59-20.34,11.54h-0.39V35.7H617.1v67.17h21.38V65.22c0-8,3.94-13.64,10.63-13.64c6.43,0,9.45,4.2,9.45,11.41v39.88
		h21.38V65.22c0-8,3.81-13.64,10.63-13.64c6.43,0,9.44,4.2,9.44,11.41v39.88h21.38V59.18C721.39,44.09,713.78,33.73,698.57,33.73z"
		/>
	<path class="st0" d="M586.66,46.29h-0.39V35.8H565.8v67.17h21.38V72.79c0-14.56,8.4-20.99,21.52-19.15h0.52V35.27
		c-0.92-0.39-2.23-0.52-4.2-0.52C596.89,34.75,591.38,38.29,586.66,46.29z"/>
	<path class="st0" d="M98.91,34.99c-8.66,0-15.87,3.67-21.12,11.81h-0.26c-3.41-7.22-10.1-11.81-18.89-11.81
		c-9.71,0-16.14,4.59-20.33,11.54h-0.39v-9.58H17.44v67.17h21.38V66.47c0-8,3.94-13.64,10.63-13.64c6.43,0,9.44,4.2,9.44,11.41
		v39.88h21.38V66.47c0-8,3.8-13.64,10.63-13.64c6.43,0,9.45,4.2,9.45,11.41v39.88h21.38V60.44
		C121.73,45.35,114.13,34.99,98.91,34.99z"/>
	<path class="st0" d="M203.85,34.99c-9.32,0-15.74,3.94-20.73,11.15h-0.39v-9.18h-20.6v67.17h21.38V67
		c0-8.26,4.72-14.17,11.81-14.17c6.95,0,10.49,4.85,10.49,11.94v39.36h21.38V60.44C227.2,45.48,218.54,34.99,203.85,34.99z"/>
	<path class="st0" d="M352.49,59.82c-8.84-1.63-16.72-2.31-16.72-7.2c0-4.35,4.21-6.39,9.65-6.39c6.12,0,10.33,1.9,11.15,8.16h20.39
		c-1.09-13.73-11.69-22.29-31.4-22.29c-16.45,0-30.04,7.61-30.04,22.29c0,16.31,12.91,19.57,25.01,21.61
		c9.24,1.63,17.67,2.31,17.67,8.56c0,4.49-4.21,6.93-10.88,6.93c-7.34,0-11.96-3.4-12.78-10.33h-20.93
		c0.68,15.36,13.46,24.74,33.85,24.74c18.22,0,31.67-7.88,31.67-23.11C379.13,64.99,364.72,61.86,352.49,59.82z"/>
	<g>
		<path class="st0" d="M131.81,36.95h20.24v67.17h-20.24V36.95z"/>
	</g>
	<circle class="st0" cx="141.94" cy="15.43" r="11.14"/>
</g>
</svg>
