<svg xmlns="http://www.w3.org/2000/svg" xmlns:xlink="http://www.w3.org/1999/xlink" viewBox="0 0 553.38 78.93"><defs><style>.cls-1{fill:#2b2869;}</style><symbol id="MQ_LOGO_DARK" data-name="MQ LOGO DARK" viewBox="0 0 1504.29 214.57"><path id="path-1" class="cls-1" d="M532.06,187.66v-110l-31.23,70.45H482.72L451.49,78V187.66H423.94V26.85h31.49l36.74,79.33,36.22-79.33h31.23V187.66ZM668.89,63.16,647,126.61h43.53Zm43.45,124.5-11.9-34.15H639.07l-11.9,34.15H596.89L653.4,26.85h33l56.24,160.81ZM860,64.29s0-1.61-.27-1.88c-1.57-3-5.78-8.35-8.41-8.62H803.74V96.88H850c2.37,0,7.62-5.38,9.72-9.15a2.79,2.79,0,0,0,.27-1.08Zm5.2,123.37L830,123.82H804.74v63.84H777.15V26.85H851a34.24,34.24,0,0,1,18.92,5.93c3.68,2.69,11.56,11.31,13.92,14.81A30.52,30.52,0,0,1,888.55,64V87.19a29.86,29.86,0,0,1-4.73,16.43c-2.36,3.5-10.24,11.58-13.92,14.27a26.43,26.43,0,0,1-9.72,4l37.57,65.73ZM959.51,149s0,.8.27,1.07c3.19,4.82,8.77,10.72,11.69,12.32a2.84,2.84,0,0,0,1.33.27h6.11l-4-9.38,25.5-8.57,7.68,18h3.45a3.54,3.54,0,0,0,1.33-.27c2.92-1.6,8-7.5,11.15-12.32a2.66,2.66,0,0,0,.27-1.07V66.23s0-.8-.27-1.07c-3.18-4.82-8.23-9.64-11.15-11.25a2.88,2.88,0,0,0-1.33-.27H972.8s-1.07,0-1.33.27a41.17,41.17,0,0,0-11.69,11.25,2.66,2.66,0,0,0-.27,1.07Zm58.71,40.45,10.36,23.31H999.09l-9.82-23.31H971.73a33,33,0,0,1-16.47-4.82c-5.57-3.22-16.2-14.73-19.39-19.29a27.19,27.19,0,0,1-4.25-15.27V66.23A27.24,27.24,0,0,1,935.87,51c3.19-4.55,13.82-16.07,19.39-19.28a33.06,33.06,0,0,1,16.47-4.83h40.38a33.87,33.87,0,0,1,16.47,4.83c5.58,3.21,15.94,14.73,19.39,19.28a27.24,27.24,0,0,1,4.25,15.27v83.86a27.19,27.19,0,0,1-4.25,15.27c-3.45,4.56-13.81,16.07-19.39,19.29-4,2.14-6.64,3.75-10.63,4.29Zm81.16-1.81V26.85h101.47V53.74H1126V94.35h70.75v26.89H1126v39.53h74.81v26.89ZM1311.1,53.74V187.66h-28.28V53.74h-43.65V26.85h115.58V53.74Zm120.46,9.42-21.9,63.45h43.53ZM1474,187.66l-11.9-34.15h-61.37l-11.9,34.15h-30.28l56.51-160.81h33l56.24,160.81Z"/><polygon class="cls-1" points="0 0 122.73 0 195.65 107.28 141 187.75 181.69 187.75 236.57 107.28 163.62 0 286.15 0 359.29 107.28 286.15 214.57 245.46 214.57 318.38 107.28 263.79 26.82 222.88 26.82 277.48 107.28 204.55 214.57 81.82 214.57 154.74 107.28 99.87 26.82 58.96 26.82 114.06 107.28 40.91 214.57 0 214.57 73.14 107.28 0 0"/></symbol></defs><title>primary-logo-purple</title><g id="Layer_2" data-name="Layer 2"><g id="Layer_1-2" data-name="Layer 1"><use width="1504.29" height="214.57" transform="scale(0.37)" xlink:href="#MQ_LOGO_DARK"/></g></g></svg>